<mxGraphModel><root><mxCell id="0"/><mxCell id="1" parent="0"/><mxCell id="2" value="Начало" style="ellipse;aspect=fixed;strokeWidth=2;whiteSpace=wrap;" vertex="1" parent="1"><mxGeometry x="564" width="68" height="68" as="geometry"/></mxCell><mxCell id="3" value="Авторизация" style="whiteSpace=wrap;strokeWidth=2;" vertex="1" parent="1"><mxGeometry x="544" y="118" width="109" height="34" as="geometry"/></mxCell><mxCell id="4" value="Режим пользователя" style="whiteSpace=wrap;strokeWidth=2;" vertex="1" parent="1"><mxGeometry x="63" y="220" width="169" height="34" as="geometry"/></mxCell><mxCell id="5" value="Режим приюта" style="whiteSpace=wrap;strokeWidth=2;" vertex="1" parent="1"><mxGeometry x="988" y="397" width="123" height="34" as="geometry"/></mxCell><mxCell id="6" value="Просмотр информации" style="rhombus;strokeWidth=2;whiteSpace=wrap;" vertex="1" parent="1"><mxGeometry x="38" y="304" width="219" height="219" as="geometry"/></mxCell><mxCell id="7" value="Редактирование информации" style="rhombus;strokeWidth=2;whiteSpace=wrap;" vertex="1" parent="1"><mxGeometry x="13" y="602" width="268" height="268" as="geometry"/></mxCell><mxCell id="8" value="Добавление/удаление животных" style="rhombus;strokeWidth=2;whiteSpace=wrap;" vertex="1" parent="1"><mxGeometry y="956" width="295" height="295" as="geometry"/></mxCell><mxCell id="9" value="Просмотр списка животных" style="rhombus;strokeWidth=2;whiteSpace=wrap;" vertex="1" parent="1"><mxGeometry x="472" y="1308" width="253" height="253" as="geometry"/></mxCell><mxCell id="10" value="Просмотр информации приюта" style="rhombus;strokeWidth=2;whiteSpace=wrap;" vertex="1" parent="1"><mxGeometry x="907" y="597" width="278" height="278" as="geometry"/></mxCell><mxCell id="11" value="Редактирование информации приюта" style="rhombus;strokeWidth=2;whiteSpace=wrap;" vertex="1" parent="1"><mxGeometry x="1235" y="573" width="327" height="327" as="geometry"/></mxCell><mxCell id="12" value="Управление животными в приюте" style="rhombus;strokeWidth=2;whiteSpace=wrap;" vertex="1" parent="1"><mxGeometry x="558" y="587" width="299" height="299" as="geometry"/></mxCell><mxCell id="13" value="Добавление животных" style="rhombus;strokeWidth=2;whiteSpace=wrap;" vertex="1" parent="1"><mxGeometry x="345" y="995" width="216" height="216" as="geometry"/></mxCell><mxCell id="14" value="Удаление животных" style="rhombus;strokeWidth=2;whiteSpace=wrap;" vertex="1" parent="1"><mxGeometry x="611" y="1004" width="199" height="199" as="geometry"/></mxCell><mxCell id="15" value="Просмотр всех животных в приюте" style="rhombus;strokeWidth=2;whiteSpace=wrap;" vertex="1" parent="1"><mxGeometry x="892" y="950" width="308" height="308" as="geometry"/></mxCell><mxCell id="16" value="" style="curved=1;startArrow=none;endArrow=block;exitX=0.5058455747716567;exitY=0.9996054032269646;entryX=0.4990596246281895;entryY=-0.000789193546070772;" edge="1" parent="1" source="2" target="3"><mxGeometry relative="1" as="geometry"><Array as="points"/></mxGeometry></mxCell><mxCell id="17" value="Пользователь" style="curved=1;startArrow=none;endArrow=block;exitX=-0.0018475383793542144;exitY=0.6757874466776783;entryX=0.4996787528314534;entryY=0.006673476275275736;" edge="1" parent="1" source="3" target="4"><mxGeometry relative="1" as="geometry"><Array as="points"><mxPoint x="147" y="186"/></Array></mxGeometry></mxCell><mxCell id="18" value="Приют" style="curved=1;startArrow=none;endArrow=block;exitX=0.9999667876357332;exitY=0.6757874466776783;entryX=0.4987747068327617;entryY=-0.01384909012738396;" edge="1" parent="1" source="3" target="5"><mxGeometry relative="1" as="geometry"><Array as="points"><mxPoint x="1049" y="186"/></Array></mxGeometry></mxCell><mxCell id="19" value="" style="curved=1;startArrow=none;endArrow=block;exitX=0.4996787528314534;exitY=0.9956989288330078;entryX=0.4997520969338613;entryY=-0.0006677462085741295;" edge="1" parent="1" source="4" target="6"><mxGeometry relative="1" as="geometry"><Array as="points"/></mxGeometry></mxCell><mxCell id="20" value="" style="curved=1;startArrow=none;endArrow=block;exitX=0.4997520969338613;exitY=0.999229971132322;entryX=0.5016630941362523;entryY=0.0005332747502113457;" edge="1" parent="1" source="6" target="7"><mxGeometry relative="1" as="geometry"><Array as="points"/></mxGeometry></mxCell><mxCell id="21" value="" style="curved=1;startArrow=none;endArrow=block;exitX=0.5016630941362523;exitY=1.0016471663517739;entryX=0.49981596348649365;entryY=0.0009720753815214512;" edge="1" parent="1" source="7" target="8"><mxGeometry relative="1" as="geometry"><Array as="points"/></mxGeometry></mxCell><mxCell id="22" value="" style="curved=1;startArrow=none;endArrow=block;exitX=0.49981596348649365;exitY=1.0006040023545086;entryX=-0.0010520120854434288;entryY=0.33113126804408227;" edge="1" parent="1" source="8" target="9"><mxGeometry relative="1" as="geometry"><Array as="points"><mxPoint x="147" y="1283"/></Array></mxGeometry></mxCell><mxCell id="23" value="" style="curved=1;startArrow=none;endArrow=block;exitX=0.49528085104833647;exitY=0.9751763624303481;entryX=0.49968277636191827;entryY=0.001769100161765119;" edge="1" parent="1" source="5" target="10"><mxGeometry relative="1" as="geometry"><Array as="points"><mxPoint x="1046" y="548"/></Array></mxGeometry></mxCell><mxCell id="24" value="" style="curved=1;startArrow=none;endArrow=block;exitX=0.8533195339927375;exitY=0.9751763624303481;entryX=0.49899998936084433;entryY=-0.0005157074067935302;" edge="1" parent="1" source="5" target="11"><mxGeometry relative="1" as="geometry"><Array as="points"><mxPoint x="1398" y="548"/></Array></mxGeometry></mxCell><mxCell id="25" value="" style="curved=1;startArrow=none;endArrow=block;exitX=0.15125938813454692;exitY=0.9751763624303481;entryX=0.49980487632113557;entryY=-0.0012628944422489025;" edge="1" parent="1" source="5" target="12"><mxGeometry relative="1" as="geometry"><Array as="points"><mxPoint x="707" y="548"/></Array></mxGeometry></mxCell><mxCell id="26" value="" style="curved=1;startArrow=none;endArrow=block;exitX=-0.0007629649694946697;exitY=0.8702713538750344;entryX=0.5006475095395688;entryY=0.0022408697340223524;" edge="1" parent="1" source="12" target="13"><mxGeometry relative="1" as="geometry"><Array as="points"><mxPoint x="453" y="925"/></Array></mxGeometry></mxCell><mxCell id="27" value="" style="curved=1;startArrow=none;endArrow=block;exitX=0.5089351058249438;exitY=0.9998727881390116;entryX=0.5019052016675173;entryY=0.0012142813984473146;" edge="1" parent="1" source="12" target="14"><mxGeometry relative="1" as="geometry"><Array as="points"><mxPoint x="711" y="925"/></Array></mxGeometry></mxCell><mxCell id="28" value="" style="curved=1;startArrow=none;endArrow=block;exitX=0.9493075324753713;exitY=0.9998727881390116;entryX=0.026998795921993068;entryY=-0.000801965787813261;" edge="1" parent="1" source="12" target="15"><mxGeometry relative="1" as="geometry"><Array as="points"><mxPoint x="877" y="925"/></Array></mxGeometry></mxCell><mxCell id="29" value="" style="curved=1;startArrow=none;endArrow=block;exitX=0.49968277636191827;exitY=1.000332907807055;entryX=0.4997136747682249;entryY=-0.000801965787813261;" edge="1" parent="1" source="10" target="15"><mxGeometry relative="1" as="geometry"><Array as="points"/></mxGeometry></mxCell><mxCell id="30" value="" style="curved=1;startArrow=none;endArrow=block;exitX=0.49899998936084433;exitY=0.9992446316127018;entryX=0.9996470414198838;entryY=0.24512154581648557;" edge="1" parent="1" source="11" target="15"><mxGeometry relative="1" as="geometry"><Array as="points"><mxPoint x="1398" y="925"/></Array></mxGeometry></mxCell><mxCell id="31" value="" style="curved=1;dashed=1;dashPattern=2 3;startArrow=none;endArrow=block;exitX=0.4997136747682249;exitY=0.9990647675155045;entryX=1.0002417281682312;entryY=0.32983791883223446;" edge="1" parent="1" source="15" target="9"><mxGeometry relative="1" as="geometry"><Array as="points"><mxPoint x="1046" y="1283"/></Array></mxGeometry></mxCell></root></mxGraphModel>